<svg width="56" height="56" viewBox="0 0 56 56" fill="none" xmlns="http://www.w3.org/2000/svg">
<path d="M31.0496 32.5787L23.4196 30.9843C23.3876 31.0461 23.3521 31.1059 23.3131 31.1635L30.2592 41.2961L30.6782 40.8776L31.8599 33.5289C31.6602 33.4445 31.4829 33.3147 31.3422 33.1497C31.2015 32.9847 31.1013 32.7891 31.0496 32.5786V32.5787ZM28.2662 22.6046C27.9803 23.0431 27.4869 23.3333 26.925 23.3333C26.8385 23.3333 26.7544 23.3245 26.6717 23.3114L23.1921 28.7559L32.4886 24.7552C32.4857 24.7178 32.4774 24.6828 32.4774 24.6444C32.4774 24.5661 32.4881 24.4903 32.5007 24.4155L28.2662 22.6047V22.6046ZM28.5189 21.6125L33.0233 23.5384C33.1668 23.4262 33.331 23.3433 33.5065 23.2944L34.2468 18.691L31.4263 15.8705L28.2516 20.8382C28.4072 21.0684 28.4994 21.3355 28.5189 21.6126V21.6125ZM37.9572 22.4014L35.1305 19.5742L34.5161 23.3911C34.6719 23.4694 34.8118 23.5759 34.9288 23.7051L37.9572 22.4014V22.4014ZM31.1847 31.5733C31.2953 31.3725 31.4543 31.2024 31.6471 31.0784C31.8399 30.9544 32.0607 30.8804 32.2893 30.8631L33.1011 25.814C33.0374 25.7717 32.9805 25.7211 32.9246 25.6691L23.5746 29.6931C23.5985 29.7908 23.615 29.8904 23.6228 29.994L31.1847 31.5733V31.5733ZM38.7272 23.1719L35.4567 24.5792L43.5262 28.0291L43.5553 28L38.7272 23.1719ZM32.8828 33.5441L31.8999 39.6549L37.6072 33.9476L33.4963 33.0891C33.3386 33.2954 33.126 33.4531 32.8828 33.5441V33.5441ZM21.7892 31.973C21.5826 31.973 21.3848 31.9375 21.1995 31.8747L19.3037 34.8415L18.5712 34.1095L20.3669 31.2998C20.3224 31.2447 20.2811 31.1872 20.2429 31.1276L16.9899 32.5282L16.2188 31.7571L19.7795 30.2244L13.3422 28.8808L12.4617 28L12.7403 27.7214L20.1637 29.2711C20.249 29.1092 20.3583 28.961 20.4879 28.8317L16.8849 23.5763L17.6126 22.8486L21.3769 28.3398C21.512 28.3084 21.6503 28.2922 21.7891 28.2916C21.948 28.2916 22.1021 28.314 22.2494 28.3519L25.7718 22.8404C25.4851 22.5429 25.3249 22.1457 25.3251 21.7325C25.3251 21.6061 25.3411 21.4836 25.3689 21.366L20.9745 19.4872L21.7453 18.7163L25.9088 20.4969C26.1199 20.3228 26.3723 20.2061 26.6416 20.1578C26.9109 20.1096 27.188 20.1314 27.4465 20.2212L30.6941 15.1384L28.0003 12.4444L12.4447 28L28.0003 43.5555L29.531 42.0248L22.5329 31.8154C22.2987 31.9192 22.0454 31.9729 21.7892 31.973V31.973ZM34.0913 26.0316L33.2654 31.1645C33.4097 31.2805 33.5292 31.4243 33.6168 31.5874C33.7044 31.7506 33.7583 31.9296 33.7753 32.114L38.4628 33.0925L42.7551 28.8002L35.0076 25.4878C34.7859 25.7829 34.4565 25.9785 34.0913 26.0317V26.0316Z" fill="#25C7B7"/>
</svg>
