<svg width="56" height="56" viewBox="0 0 56 56" fill="none" xmlns="http://www.w3.org/2000/svg">
<path d="M28.0001 42.3294L33.7285 24.6991H22.2715L27.9999 42.3294H28.0001Z" fill="#E24329"/>
<path d="M28 42.3293L22.2715 24.699H14.2433L28 42.3293Z" fill="#FC6D26"/>
<path d="M14.2433 24.699L12.5025 30.0568C12.4251 30.295 12.4251 30.5515 12.5025 30.7897C12.5799 31.0279 12.7307 31.2355 12.9333 31.3827L28 42.3294L14.2432 24.6991L14.2433 24.699Z" fill="#FCA326"/>
<path d="M14.2433 24.699H22.2715L18.8214 14.0804C18.6439 13.534 17.8709 13.5341 17.6935 14.0804L14.2433 24.699Z" fill="#E24329"/>
<path d="M28.0001 42.3293L33.7285 24.699H41.7568L27.9999 42.3293H28.0001Z" fill="#FC6D26"/>
<path d="M41.7568 24.699L43.4976 30.0568C43.5749 30.295 43.5749 30.5516 43.4975 30.7897C43.4201 31.0279 43.2693 31.2355 43.0667 31.3827L28.0001 42.3294L41.7568 24.6991V24.699Z" fill="#FCA326"/>
<path d="M41.7568 24.699H33.7285L37.1787 14.0804C37.3562 13.534 38.1292 13.5341 38.3066 14.0804L41.7568 24.699Z" fill="#E24329"/>
</svg>
