<svg width="56" height="56" viewBox="0 0 56 56" fill="none" xmlns="http://www.w3.org/2000/svg">
<path d="M38.4776 24.4036C38.4291 23.3352 38.5748 22.3882 38.0891 21.5869C36.9236 19.5958 34.0098 18.4303 28.1821 18.4303V18.6002H28.0607H28.1821V18.4303C22.3544 18.4303 19.2949 19.5958 18.1294 21.6112C17.668 22.4368 17.7166 23.3595 17.6437 24.4279C17.5951 25.2778 17.2066 26.1762 17.3766 27.1475C17.5709 28.4102 17.6437 29.6728 17.838 30.8384C17.9837 31.7854 19.2949 32.5867 19.4163 33.4851C19.7562 35.9619 22.3301 37.1031 28.1578 37.1031V37.2974H28.0121H28.1821V37.1031C34.0098 37.1031 36.4865 35.9619 36.8022 33.4851C36.9236 32.5624 38.1377 31.7854 38.2834 30.8384C38.4776 29.6728 38.5505 28.4102 38.7447 27.1475C38.9147 26.1762 38.5262 25.2535 38.4776 24.4036V24.4036Z" fill="#EFCCA3"/>
<path d="M28.085 25.2778C29.1291 25.3021 29.8576 25.9577 30.5375 26.5647C31.3388 27.2689 32.6986 27.7546 33.257 28.3616C33.8155 28.9687 34.544 29.5757 34.8111 30.5227C35.0782 31.4697 35.151 32.6838 35.151 32.9995C35.151 33.3151 35.321 33.2423 35.8066 32.9995C36.9479 32.441 38.2106 30.9355 38.2106 30.9355C38.0649 31.8825 36.8265 32.7324 36.7051 33.6308C36.4137 36.1076 34.0098 37.2974 28.0607 37.2974H28.0364H28.1821" fill="#CCAC8D"/>
<path d="M31.9215 23.3838C32.1401 24.1365 32.9171 26.6862 31.4116 25.8363C31.4116 25.8363 32.043 26.2005 32.4315 27.5846C32.8443 28.9687 33.8398 29.1386 33.8398 29.1386C33.8398 29.1386 35.4667 29.4543 36.6808 28.4102C37.7006 27.536 37.8706 25.982 37.4335 24.7922C36.9965 23.6266 36.2194 23.2624 35.0782 23.0196C33.9369 22.7525 31.6544 22.5339 31.9215 23.3838V23.3838Z" fill="#CCAC8D"/>
<path d="M34.8111 28.2888C35.9912 28.2888 36.9479 27.3321 36.9479 26.152C36.9479 24.9718 35.9912 24.0151 34.8111 24.0151C33.6309 24.0151 32.6743 24.9718 32.6743 26.152C32.6743 27.3321 33.6309 28.2888 34.8111 28.2888Z" fill="black"/>
<path d="M34.2526 25.7634C34.5611 25.7634 34.8111 25.5134 34.8111 25.2049C34.8111 24.8965 34.5611 24.6465 34.2526 24.6465C33.9442 24.6465 33.6941 24.8965 33.6941 25.2049C33.6941 25.5134 33.9442 25.7634 34.2526 25.7634Z" fill="white"/>
<path d="M31.5573 26.0548C31.5573 26.0548 33.4756 27.366 34.5197 28.653C35.5638 29.9399 35.5395 30.1827 35.5395 30.1827L34.7868 30.5227C34.7868 30.5227 33.7184 28.5073 32.4072 27.7545C31.0717 27.0018 30.926 26.3705 30.926 26.3705L31.5573 26.0548V26.0548Z" fill="#EFCCA3"/>
<path d="M28.1578 25.2778C27.1137 25.3021 26.3367 25.9577 25.6325 26.5647C24.8312 27.2689 23.4228 27.7546 22.8643 28.3616C22.3059 28.9687 21.5531 29.5757 21.286 30.5227C21.0189 31.4697 20.9218 32.6838 20.9218 32.9995C20.9218 33.3151 20.9703 33.3394 20.2662 32.9995C19.1249 32.4653 17.8622 30.9355 17.8622 30.9355C18.0079 31.8825 19.2463 32.7324 19.3677 33.6308C19.7077 36.1076 22.1116 37.2974 28.0607 37.2974H28.1821" fill="#CCAC8D"/>
<path d="M33.7913 29.3815C32.6257 27.9488 30.756 26.6133 28.1578 26.6133H28.1335C25.5354 26.6133 23.6656 27.9488 22.5001 29.3815C21.286 30.8627 21.3831 31.4454 21.3831 32.8538C21.3831 37.953 23.18 36.4961 24.3698 37.1274C25.5839 37.7345 26.8466 37.5402 28.1335 37.5402H28.1578C29.4691 37.5402 30.7074 37.7102 31.9215 37.1031C33.1114 36.4961 34.9082 38.0016 34.9082 32.9023C34.9325 31.494 35.0054 30.8627 33.7913 29.3815V29.3815Z" fill="#56332B"/>
<path d="M28.0364 27.876C28.0364 27.876 27.8664 30.2314 27.5265 30.6927L28.1578 30.547L28.0364 27.876Z" fill="#442823"/>
<path d="M28.2064 27.876C28.2064 27.876 28.3763 30.2314 28.7163 30.6927L28.085 30.547L28.2064 27.876Z" fill="#442823"/>
<path d="M26.1667 27.3175C25.9239 26.759 26.798 25.8606 28.1821 25.8363C29.5662 25.8363 30.4403 26.7347 30.1975 27.3175C29.9547 27.9002 29.0805 28.0702 28.1821 28.0945C27.3079 28.0702 26.4095 27.9002 26.1667 27.3175V27.3175Z" fill="#56332B"/>
<path d="M28.1821 27.876C28.1821 27.7788 29.0077 27.7546 29.4447 27.4632C29.4447 27.4632 28.5463 27.7546 28.3521 27.6331C28.1578 27.536 28.1092 27.2446 28.1092 27.2446C28.1092 27.2446 28.0364 27.536 27.8907 27.6331C27.7207 27.7303 26.7009 27.4632 26.7009 27.4632C26.7009 27.4632 28.0607 27.8031 28.0607 27.876C28.0607 27.9488 28.0364 28.1916 28.0364 28.3616C28.0364 28.9687 28.0364 30.4741 28.1335 30.5955C28.2792 30.8141 28.2306 28.9687 28.2306 28.3616C28.2064 28.1673 28.2064 27.9731 28.1821 27.876V27.876Z" fill="black"/>
<path d="M28.2307 31.1298C28.6435 31.1298 29.3719 31.4211 30.0275 31.8825C29.3962 31.1783 28.6435 30.6927 28.2307 30.6927C27.7936 30.6927 26.8709 31.2269 26.2153 32.0039C26.8952 31.4697 27.7693 31.1298 28.2307 31.1298Z" fill="#7F4A41"/>
<path d="M28.0607 35.4277C27.138 35.4277 26.2395 35.1363 25.414 34.9178C25.244 34.8692 25.074 34.9906 24.904 34.942C23.3743 34.4564 22.1359 33.6308 21.3831 32.5867V32.8295C21.3831 37.9287 23.18 36.4961 24.3698 37.1031C25.5839 37.7102 26.8466 37.5159 28.1335 37.5159H28.1578C29.4691 37.5159 30.7074 37.6859 31.9215 37.0789C33.1114 36.4718 34.9082 37.953 34.9082 32.8538C34.9082 32.6595 34.9082 32.4653 34.9325 32.2953C34.2283 33.4365 32.9414 34.335 31.3388 34.8692C31.1931 34.9178 30.8531 34.7963 30.7074 34.8206C29.8333 35.112 29.0563 35.4277 28.0607 35.4277V35.4277Z" fill="#442823"/>
<path d="M25.7539 32.6838C25.7539 32.6838 25.1469 34.505 25.5596 35.3063L25.0012 35.0635C25.0012 35.0635 25.414 33.218 25.7539 32.6838V32.6838ZM30.5617 32.6838C30.5617 32.6838 31.1688 34.505 30.756 35.3063L31.3145 35.0635C31.3145 35.0635 30.8774 33.218 30.5617 32.6838Z" fill="#442823"/>
<path d="M24.1998 23.3838C23.9813 24.1365 23.2043 26.6862 24.7098 25.8363C24.7098 25.8363 24.0784 26.2005 23.6899 27.5846C23.3014 28.9687 22.2816 29.1386 22.2816 29.1386C22.2816 29.1386 20.6547 29.4543 19.4406 28.4102C18.4207 27.536 18.2508 25.982 18.6878 24.7922C19.1249 23.6023 19.9019 23.2624 21.0432 23.0196C22.1844 22.7525 24.4427 22.5339 24.1998 23.3838V23.3838Z" fill="#CCAC8D"/>
<path d="M28.1578 30.6927C28.8134 30.6927 30.8531 32.101 30.8774 33.825V33.7279C30.8774 31.931 29.2262 30.4984 28.1578 30.4984C27.0894 30.4984 25.4382 31.9553 25.4382 33.7279V33.825C25.4625 32.101 27.5022 30.6927 28.1578 30.6927Z" fill="black"/>
<path d="M28.6879 27.3307C28.7918 27.3039 28.8353 27.1243 28.785 26.9295C28.7348 26.7347 28.6098 26.5985 28.5059 26.6253C28.4021 26.6521 28.3586 26.8318 28.4088 27.0265C28.4591 27.2213 28.584 27.3575 28.6879 27.3307Z" fill="#331712"/>
<path d="M27.4398 27.3271C27.5423 27.3588 27.6736 27.2289 27.7332 27.0367C27.7928 26.8446 27.7581 26.6631 27.6556 26.6313C27.5532 26.5995 27.4218 26.7295 27.3622 26.9216C27.3026 27.1138 27.3373 27.2953 27.4398 27.3271Z" fill="#331712"/>
<path d="M21.4317 28.2888C22.6118 28.2888 23.5685 27.3321 23.5685 26.152C23.5685 24.9718 22.6118 24.0151 21.4317 24.0151C20.2516 24.0151 19.2949 24.9718 19.2949 26.152C19.2949 27.3321 20.2516 28.2888 21.4317 28.2888Z" fill="black"/>
<path d="M21.9902 25.7634C22.2986 25.7634 22.5487 25.5134 22.5487 25.2049C22.5487 24.8965 22.2986 24.6465 21.9902 24.6465C21.6817 24.6465 21.4317 24.8965 21.4317 25.2049C21.4317 25.5134 21.6817 25.7634 21.9902 25.7634Z" fill="white"/>
<path d="M28.7891 26.1762C28.7891 26.1519 28.2307 26.419 28.085 26.4433C27.9393 26.419 27.3808 26.1519 27.3808 26.1762H28.7891Z" fill="#7F4A41"/>
<path d="M24.5398 26.0548C24.5398 26.0548 22.6215 27.366 21.5774 28.653C20.5333 29.9399 20.5575 30.1827 20.5575 30.1827L21.3103 30.5227C21.3103 30.5227 22.3787 28.5073 23.6899 27.7545C25.0011 27.0018 25.1711 26.3705 25.1711 26.3705L24.5398 26.0548Z" fill="#EFCCA3"/>
<path d="M20.339 22.1697C20.339 22.1697 19.6834 23.9666 18.2265 24.7193C18.2265 24.7193 20.509 24.4522 20.339 22.1697ZM35.661 22.1697C35.661 22.1697 36.3166 23.9666 37.7735 24.7193C37.7735 24.7193 35.491 24.4522 35.661 22.1697ZM31.5087 25.5206C31.5087 25.5206 30.0761 24.0151 28.1578 23.9666H28.1821H28.2064C26.2638 24.0151 24.8555 25.5206 24.8555 25.5206C26.5309 24.3551 27.9636 24.3794 28.2064 24.3794C28.1821 24.3794 29.8333 24.3551 31.5087 25.5206V25.5206ZM29.8333 22.364C29.8333 22.364 29.1048 21.3441 28.1335 21.3198H28.1821C27.4536 21.3441 26.5066 22.364 26.5066 22.364C27.3322 21.5626 28.1821 21.5869 28.1821 21.5869C28.1821 21.5869 28.9834 21.5626 29.8333 22.364ZM21.4317 29.8185C21.4317 29.8185 20.2904 30.377 19.4649 30.0371H19.4406C18.7121 29.6243 18.3479 28.3859 18.3479 28.3859C18.3479 28.3859 19.0763 30.5713 21.4317 29.8185V29.8185ZM34.7382 29.8185C34.7382 29.8185 35.8795 30.377 36.7051 30.0371C37.6764 29.6243 37.822 28.3859 37.822 28.3859C37.822 28.3859 37.0936 30.5713 34.7382 29.8185V29.8185Z" fill="#CCAC8D"/>
<path d="M22.7429 22.0483C23.3742 21.9269 24.4184 21.9026 25.244 22.1697C26.2881 22.5339 25.4382 23.8694 25.6568 23.9423C25.8753 24.0151 26.1667 23.0196 28.1092 23.1167C30.0761 23.2138 30.2946 24.088 30.5617 23.9423C30.8288 23.7966 30.2946 21.5141 33.2327 22.0483C33.2327 22.0483 30.1489 21.2227 30.2946 23.4566C30.2946 23.4566 28.522 22.0968 26.0453 23.3109C26.0696 23.3109 26.7009 21.2227 22.7429 22.0483V22.0483ZM33.4998 22.0483C33.5484 22.0483 33.5727 22.0726 33.597 22.0726C33.6213 22.0726 33.5727 22.0483 33.4998 22.0483ZM21.893 19.0616C21.893 19.0616 19.2706 22.3639 18.8821 23.6266C18.4936 24.9135 18.2022 30.1827 17.8622 30.9355L16.6481 25.7391L18.8821 20.3242L21.893 19.0616V19.0616ZM34.2283 19.0616C34.2283 19.0616 36.8508 22.3639 37.2393 23.6266C37.6278 24.9135 37.9192 30.1827 38.2591 30.9355L39.4732 25.7391L37.2393 20.3242L34.2283 19.0616V19.0616Z" fill="#CCAC8D"/>
<path d="M34.1069 19.0616C34.1069 19.0616 36.9236 21.4169 37.7492 24.1365C38.5748 26.8561 38.2349 30.1585 38.8662 30.5713C39.7646 31.154 40.7845 27.6817 41.1244 27.3175C41.6586 26.7347 43.4312 25.2535 43.5527 24.9864C43.6741 24.7193 39.9589 20.6642 38.332 19.8629C36.3651 18.9402 33.9369 18.8673 34.1069 19.0616V19.0616Z" fill="#56332B"/>
<path d="M36.5108 20.5185C36.5108 20.5185 39.8375 24.7679 39.7889 30.0613L41.1244 27.3418C41.1001 27.3418 39.9346 23.8694 36.5108 20.5185V20.5185Z" fill="#442823"/>
<path d="M21.8931 19.0616C21.8931 19.0616 19.0764 21.4169 18.2508 24.1365C17.4252 26.8561 17.7651 30.1585 17.1338 30.5713C16.2354 31.154 15.2155 27.6817 14.8756 27.3175C14.3414 26.7347 12.5688 25.2535 12.4474 24.9864C12.326 24.7193 16.0411 20.6642 17.668 19.8629C19.6348 18.9402 22.063 18.8673 21.8931 19.0616V19.0616Z" fill="#56332B"/>
<path d="M19.4891 20.5185C19.4891 20.5185 16.1625 24.7679 16.2111 30.0613L14.8998 27.3418C14.8998 27.3418 16.0654 23.8694 19.4891 20.5185Z" fill="#442823"/>
<path d="M17.6923 30.1585C17.6923 30.1585 17.9351 31.4697 18.3236 31.8825C18.7121 32.2953 18.445 31.5668 18.445 31.5668C18.445 31.5668 18.0322 31.3483 18.1051 29.6728C18.1779 27.9974 17.6923 30.1585 17.6923 30.1585V30.1585ZM38.4048 30.1585C38.4048 30.1585 38.162 31.4697 37.7735 31.8825C37.385 32.2953 37.6521 31.5668 37.6521 31.5668C37.6521 31.5668 38.0649 31.3483 37.992 29.6728C37.9192 27.9974 38.4048 30.1585 38.4048 30.1585V30.1585Z" fill="#CCAC8D"/>
<path d="M25.6325 29.3572C25.7398 29.3572 25.8267 29.2703 25.8267 29.163C25.8267 29.0557 25.7398 28.9687 25.6325 28.9687C25.5252 28.9687 25.4382 29.0557 25.4382 29.163C25.4382 29.2703 25.5252 29.3572 25.6325 29.3572Z" fill="#442823"/>
<path d="M24.5155 30.5227C24.6228 30.5227 24.7098 30.4358 24.7098 30.3285C24.7098 30.2212 24.6228 30.1342 24.5155 30.1342C24.4082 30.1342 24.3213 30.2212 24.3213 30.3285C24.3213 30.4358 24.4082 30.5227 24.5155 30.5227Z" fill="#442823"/>
<path d="M24.1513 29.3572C24.2586 29.3572 24.3456 29.2703 24.3456 29.163C24.3456 29.0557 24.2586 28.9687 24.1513 28.9687C24.044 28.9687 23.957 29.0557 23.957 29.163C23.957 29.2703 24.044 29.3572 24.1513 29.3572Z" fill="#442823"/>
<path d="M30.3675 29.3572C30.4748 29.3572 30.5618 29.2703 30.5618 29.163C30.5618 29.0557 30.4748 28.9687 30.3675 28.9687C30.2602 28.9687 30.1732 29.0557 30.1732 29.163C30.1732 29.2703 30.2602 29.3572 30.3675 29.3572Z" fill="#442823"/>
<path d="M31.4844 30.5227C31.5917 30.5227 31.6787 30.4358 31.6787 30.3285C31.6787 30.2212 31.5917 30.1342 31.4844 30.1342C31.3772 30.1342 31.2902 30.2212 31.2902 30.3285C31.2902 30.4358 31.3772 30.5227 31.4844 30.5227Z" fill="#442823"/>
<path d="M31.8487 29.3572C31.956 29.3572 32.0429 29.2703 32.0429 29.163C32.0429 29.0557 31.956 28.9687 31.8487 28.9687C31.7414 28.9687 31.6544 29.0557 31.6544 29.163C31.6544 29.2703 31.7414 29.3572 31.8487 29.3572Z" fill="#442823"/>
</svg>
