<svg width="56" height="56" viewBox="0 0 56 56" fill="none" xmlns="http://www.w3.org/2000/svg">
<path d="M42.0517 39.6624C42.0632 41.7984 40.3406 43.5377 38.2059 43.5492C38.0472 43.5505 37.8872 43.5416 37.7298 43.5224C35.7486 43.2293 34.2973 41.5054 34.346 39.5037V16.49C34.2986 14.4858 35.7538 12.7619 37.7362 12.4714C39.8568 12.2231 41.7778 13.7409 42.0261 15.8616C42.044 16.0177 42.053 16.1739 42.0517 16.3313V39.6624Z" fill="#F9AB00"/>
<path d="M17.8018 35.8485C19.9301 35.8485 21.6553 37.5737 21.6553 39.702C21.6553 41.8304 19.9301 43.5556 17.8018 43.5556C15.6734 43.5556 13.9482 41.8304 13.9482 39.702C13.9482 37.5737 15.6734 35.8485 17.8018 35.8485ZM27.9405 24.1701C25.8019 24.2879 24.1433 26.0809 24.1932 28.222V38.5719C24.1932 41.3812 25.4295 43.0859 27.2404 43.4493C29.3304 43.873 31.3666 42.5228 31.7902 40.4328C31.8427 40.1768 31.8683 39.917 31.867 39.656V28.0429C31.8708 25.9069 30.1431 24.1727 28.0071 24.1689C27.9853 24.1689 27.9623 24.1689 27.9405 24.1701Z" fill="#E37400"/>
</svg>
