<svg width="56" height="56" viewBox="0 0 56 56" fill="none" xmlns="http://www.w3.org/2000/svg">
<path d="M14.2668 33.6337C14.2966 33.7012 14.3303 33.7634 14.3666 33.8256C14.3834 33.8619 14.4068 33.8995 14.4275 33.9332C14.4612 34.0006 14.4975 34.0654 14.5325 34.1302L14.736 34.4725C14.7736 34.536 14.8099 34.5982 14.8527 34.6604C14.924 34.7823 15.0083 34.9015 15.0821 35.0234C15.1159 35.0739 15.147 35.1245 15.1846 35.1751C15.3271 35.3967 15.4568 35.5808 15.5955 35.7597C15.694 35.8932 15.7925 36.0241 15.8988 36.1551C15.9338 36.2043 15.9727 36.2536 16.009 36.3028L16.2955 36.6503C16.3305 36.6904 16.3655 36.7371 16.4031 36.7786C16.5301 36.9316 16.6649 37.0793 16.7998 37.2297C16.7998 37.2323 16.8036 37.2349 16.8062 37.2388C16.9735 37.4488 17.1537 37.6355 17.3507 37.8014L17.3559 37.8066C17.4596 37.9129 17.5633 38.0179 17.6735 38.1216L17.8044 38.2473C17.9483 38.3821 18.0922 38.5156 18.2438 38.6453C18.2464 38.6453 18.2477 38.6479 18.2503 38.6492L18.3242 38.714C18.4564 38.8293 18.59 38.9434 18.7261 39.0497L18.8881 39.1858C18.9983 39.274 19.1124 39.3569 19.2252 39.4438L19.4015 39.5786C19.522 39.6694 19.6503 39.7575 19.7735 39.8457C19.8189 39.8781 19.8642 39.9105 19.9109 39.9403L19.9485 39.9701L20.3128 40.2086L20.4683 40.3123C20.6589 40.4342 20.8481 40.5483 21.0374 40.6623C21.0918 40.6896 21.1463 40.7194 21.1968 40.7505C21.3368 40.8308 21.482 40.9125 21.6233 40.9864C21.7011 41.0305 21.7815 41.0681 21.8618 41.1083C21.9591 41.1627 22.0602 41.2159 22.1639 41.2703C22.1924 41.2794 22.2157 41.2884 22.2391 41.3014L22.2443 41.2962C22.287 41.3157 22.3272 41.3364 22.3687 41.3572C22.5243 41.4349 22.6863 41.5088 22.8548 41.5814C22.8859 41.5944 22.9196 41.6073 22.9533 41.6255C23.14 41.7072 23.3267 41.7849 23.5198 41.8601C23.5639 41.8731 23.6106 41.8951 23.6559 41.912C23.8309 41.9781 24.0111 42.0455 24.19 42.109L24.2548 42.1323C24.4532 42.1998 24.6489 42.2646 24.8511 42.3255C24.8978 42.3385 24.9458 42.3553 24.995 42.3683C25.2011 42.4305 25.4008 42.5044 25.6095 42.5433C38.9265 44.9583 42.796 34.5762 42.796 34.5762C39.5448 38.7892 33.7749 39.9001 28.311 38.6634C28.1088 38.6168 27.9065 38.5519 27.7017 38.4923C27.4126 38.4105 27.126 38.3201 26.8423 38.2214L26.9654 38.259L26.8851 38.2279C26.7088 38.1682 26.5389 38.1021 26.3665 38.036C26.3243 38.0181 26.2815 38.0017 26.2382 37.9867L26.2239 37.9829C26.0334 37.9064 25.848 37.8286 25.6639 37.7469C25.6237 37.734 25.59 37.7158 25.5499 37.7003C25.3318 37.6052 25.1157 37.5058 24.9017 37.4021L25.0806 37.4812C25.0339 37.4606 24.9881 37.4381 24.9432 37.4138C24.8213 37.3567 24.6995 37.2919 24.5802 37.231C24.4894 37.188 24.3999 37.1421 24.3119 37.0936L24.3378 37.1066C24.1913 37.0288 24.0448 36.9445 23.8971 36.8654C23.853 36.8343 23.8024 36.8084 23.7519 36.7799C23.5322 36.6522 23.3152 36.52 23.1011 36.3832L23.1828 36.4325C23.1279 36.3986 23.0743 36.3627 23.022 36.3249L23.0298 36.3301C22.8905 36.2445 22.7539 36.1546 22.6202 36.0604C22.5761 36.0319 22.5359 36.0008 22.4906 35.9697C22.3509 35.8744 22.2134 35.7758 22.0783 35.6741L22.1094 35.6962C22.055 35.6521 21.9967 35.6106 21.9383 35.5678C21.8243 35.4784 21.7089 35.3928 21.5948 35.2995L21.4418 35.1776C21.2788 35.0479 21.1189 34.9144 20.9622 34.7771L20.9609 34.7758L20.5111 34.3675L20.3815 34.2456C20.2752 34.138 20.1663 34.0356 20.0574 33.9293L19.9316 33.7997C19.7974 33.6668 19.6665 33.5306 19.5389 33.3913L19.5311 33.3823L19.509 33.3641C19.3718 33.2134 19.2365 33.0608 19.1033 32.9065C19.0683 32.8663 19.0359 32.8236 18.9996 32.7808L18.7053 32.4243C18.5727 32.2577 18.443 32.0887 18.3164 31.9174L18.2646 31.8448C15.2338 27.7278 14.1371 22.046 16.5625 17.3845L14.421 20.0925C11.6664 24.032 12.0073 29.155 14.1138 33.3382C14.1618 33.4406 14.2149 33.5365 14.2668 33.6337V33.6337Z" fill="#1266A9"/>
<path d="M23.5444 27.9585L23.5302 27.9378L23.5185 27.9222L23.5444 27.9585Z" fill="black"/>
<path d="M24.9937 29.6592L25.1104 29.7759C25.2582 29.9185 25.4098 30.0572 25.5641 30.1959L25.5835 30.2128C25.7391 30.3502 25.9141 30.4941 26.0943 30.6341L26.1215 30.6548C26.1656 30.6846 26.2032 30.7196 26.2459 30.7494C26.4274 30.8894 26.6102 31.0229 26.8008 31.1565L26.8202 31.1681C26.9006 31.2265 26.9861 31.2796 27.0769 31.3367C27.1132 31.36 27.1547 31.3911 27.1936 31.4144C27.331 31.5026 27.4658 31.5842 27.6045 31.6685C27.6265 31.6776 27.646 31.6892 27.6667 31.6983C27.7834 31.7696 27.9104 31.8383 28.0323 31.9005C28.075 31.9265 28.1165 31.9459 28.1606 31.9705C28.2474 32.0133 28.333 32.0587 28.416 32.1028L28.4575 32.1209C28.6325 32.2065 28.8113 32.2868 28.9863 32.3659C29.0304 32.3828 29.068 32.397 29.1056 32.4152C29.2495 32.4774 29.396 32.537 29.5399 32.5915C29.6047 32.6135 29.6656 32.6394 29.7265 32.6589C29.8588 32.7081 29.9975 32.7535 30.1284 32.7989L30.3099 32.8572C30.4991 32.9156 30.691 32.992 30.8919 33.0232C41.1755 34.7161 43.5556 26.8385 43.5556 26.8385C41.4128 29.9068 37.2659 31.3691 32.8468 30.227C32.6262 30.1714 32.4074 30.1087 32.1908 30.039L32.2647 30.0598C32.2025 30.0429 32.148 30.0235 32.0884 30.0053C31.9536 29.9587 31.8149 29.9133 31.684 29.8653L31.4973 29.7953C31.3521 29.737 31.2043 29.6826 31.063 29.6203C31.019 29.6009 30.9788 29.5879 30.9451 29.5685C30.7636 29.4868 30.5808 29.4064 30.4032 29.3209L30.1362 29.1822L29.9819 29.1044C29.8627 29.0422 29.7525 28.9774 29.6384 28.9113C29.6093 28.8976 29.5811 28.882 29.5541 28.8646L29.558 28.8659C29.4206 28.7803 29.278 28.6974 29.1458 28.6105C29.1017 28.5859 29.0615 28.5561 29.02 28.5301L28.7504 28.3551C28.5637 28.2255 28.381 28.0868 28.1956 27.952C28.1541 27.9144 28.1139 27.8833 28.0737 27.8496C26.1306 26.329 24.5983 24.251 23.8711 21.8982C23.105 19.4521 23.2735 16.7091 24.597 14.4833L22.9702 16.7752C20.9726 19.6284 21.0853 23.4421 22.6409 26.4599C22.9248 27.0174 23.2126 27.4879 23.5302 27.9364C23.8257 28.359 24.1524 28.8542 24.5465 29.1939C24.6865 29.3533 24.8369 29.505 24.9937 29.6592V29.6592Z" fill="#1266A9"/>
<path d="M15.602 35.7674L15.5968 35.7597L15.5877 35.748L15.602 35.7674ZM20.992 34.803L21.005 34.8121L21.0076 34.8159L20.992 34.803Z" fill="black"/>
<path d="M30.1595 14.2941C28.9812 16.0143 28.8684 18.1506 29.6799 20.0471C30.5419 22.0615 32.3036 23.643 34.357 24.3923C34.4412 24.4247 34.5229 24.4519 34.6098 24.483L34.7238 24.518C34.8431 24.5556 34.9636 24.5997 35.0868 24.6269C40.7659 25.7171 42.3034 21.7258 42.7169 21.1386C41.3648 23.0701 39.0976 23.5341 36.3157 22.8614C36.0738 22.8024 35.8357 22.7288 35.6027 22.641L35.6455 22.6552C35.3556 22.5549 35.0717 22.4381 34.7951 22.3052L34.8444 22.3273C34.3129 22.068 33.8566 21.788 33.4327 21.4665C30.9464 19.5869 29.409 16.0078 31.0319 13.0924L30.1595 14.2941Z" fill="#1266A9"/>
</svg>
