<svg width="56" height="56" viewBox="0 0 56 56" fill="none" xmlns="http://www.w3.org/2000/svg">
<path d="M13.7408 14.1297H42.2593V41.8704H13.7408V14.1297Z" fill="#2E001E"/>
<path d="M12.4445 12.8333V43.1667H43.5556V12.8333H12.4445ZM13.7408 14.1296H42.2593V41.8704H13.7408V14.1296Z" fill="#FF2BC2"/>
<path d="M35.0389 25.5759C34.8445 25.4852 34.5982 25.4463 34.2871 25.4463C32.6537 25.4463 31.5648 26.7037 31.5648 28.7907C31.5648 31.1759 32.6797 32.1352 34.1315 32.1352C34.4426 32.1352 34.7797 32.0963 35.026 31.9926V25.5759H35.0389ZM29.2315 28.8944C29.2315 25.8741 31.176 23.5148 34.3648 23.5148C34.6371 23.5148 34.7797 23.5148 35.0389 23.5408V20.1704C35.0389 20.0926 35.1037 20.0408 35.1685 20.0408H37.2556C37.3593 20.0408 37.3852 20.0797 37.3852 20.1445V31.9926C37.3852 32.3426 37.3852 32.7833 37.45 33.263C37.45 33.3537 37.45 33.3667 37.3722 33.4055C36.2834 33.9241 35.1426 34.1574 34.0537 34.1574C31.2408 34.1574 29.2315 32.4204 29.2315 28.8944V28.8944ZM24.8111 26.7945L28.4408 33.8333C28.5056 33.937 28.4667 34.0407 28.363 34.0407H26.1074C25.9648 34.0407 25.9 34.0018 25.8352 33.8722C25.0056 32.1611 24.163 30.3852 23.2945 28.5444H23.2686C22.4908 30.2815 21.6352 32.1741 20.8056 33.8852C20.7408 33.9889 20.676 34.0278 20.5723 34.0278H18.4204C18.2908 34.0278 18.2778 33.9241 18.3426 33.8463L21.8945 27.0148L18.4593 20.2222C18.3815 20.1185 18.4593 20.0278 18.55 20.0278H20.7797C20.9093 20.0278 20.9741 20.0537 21.013 20.1704C21.8297 21.8945 22.6593 23.5926 23.4371 25.3296H23.463C24.2148 23.6185 25.0445 21.8945 25.8352 20.1963C25.9 20.0926 25.9389 20.0278 26.0685 20.0278H28.1556C28.2593 20.0278 28.2982 20.1056 28.2334 20.2222L24.8111 26.7945V26.7945Z" fill="#FF2BC2"/>
</svg>
