<svg width="56" height="56" viewBox="0 0 56 56" fill="none" xmlns="http://www.w3.org/2000/svg">
<path d="M26.3367 15.3154L14.7376 20.1149C14.0925 20.3819 14.0992 21.2982 14.7483 21.5555L26.3958 26.1744C27.4192 26.5803 28.5589 26.5803 29.5822 26.1744L41.2299 21.5553C41.8788 21.2982 41.8859 20.382 41.2405 20.1151L29.6417 15.3152C28.5835 14.8773 27.3948 14.8773 26.3366 15.3152" fill="#FCB400"/>
<path d="M29.0225 28.6965V40.2354C29.0225 40.784 29.5759 41.16 30.0861 40.9578L43.065 35.92C43.2097 35.8626 43.3339 35.763 43.4214 35.6342C43.5089 35.5054 43.5556 35.3533 43.5556 35.1976V23.6589C43.5556 23.1101 43.0022 22.7343 42.492 22.9365L29.5131 27.9743C29.3684 28.0317 29.2443 28.1313 29.1568 28.2601C29.0693 28.3889 29.0225 28.541 29.0225 28.6967" fill="#18BFFF"/>
<path d="M25.9917 29.2919L22.1399 31.1517L21.7488 31.3407L13.6177 35.2367C13.1025 35.4854 12.4445 35.1098 12.4445 34.5372V23.7072C12.4445 23.5001 12.5507 23.3212 12.6931 23.1867C12.7515 23.1285 12.8178 23.0788 12.8901 23.039C13.0842 22.9224 13.3613 22.8913 13.597 22.9845L25.927 27.87C26.5537 28.1186 26.603 28.9968 25.9917 29.2921" fill="#F82B60"/>
<path d="M25.9917 29.2919L22.1399 31.1517L12.6931 23.1865C12.7516 23.1284 12.8179 23.0787 12.8901 23.039C13.0842 22.9224 13.3614 22.8913 13.597 22.9845L25.927 27.87C26.5537 28.1186 26.603 28.9968 25.9917 29.2921" fill="black" fill-opacity="0.25"/>
</svg>
