<svg width="58" height="56" viewBox="0 0 58 56" fill="none" xmlns="http://www.w3.org/2000/svg">
<path fill-rule="evenodd" clip-rule="evenodd" d="M19.8891 15.6083C18.1041 15.6083 16.7832 17.162 16.8424 18.847C16.8991 20.4658 16.8254 22.5624 16.2946 24.2722C15.762 25.9868 14.8618 27.0733 13.3912 27.2128V28.7873C14.8618 28.927 15.762 30.013 16.2946 31.7278C16.8254 33.4376 16.8991 35.5342 16.8423 37.153C16.7831 38.8377 18.104 40.3917 19.8894 40.3917H38.1805C39.9656 40.3917 41.2862 38.838 41.227 37.153C41.1703 35.5342 41.244 33.4376 41.7748 31.7278C42.3074 30.013 43.2054 28.9266 44.6761 28.7873V27.2128C43.2055 27.073 42.3075 25.987 41.7748 24.2722C41.244 22.5627 41.1703 20.4658 41.227 18.847C41.2862 17.1623 39.9656 15.6083 38.1805 15.6083H19.8889H19.8891ZM34.6013 30.8641C34.6013 33.1843 32.861 34.5914 29.973 34.5914H25.0567C24.9161 34.5914 24.7812 34.5358 24.6818 34.4369C24.5823 34.338 24.5265 34.2039 24.5265 34.0641V21.936C24.5265 21.7962 24.5823 21.662 24.6818 21.5632C24.7812 21.4643 24.9161 21.4087 25.0567 21.4087H29.945C32.3531 21.4087 33.9336 22.7059 33.9336 24.6975C33.9336 26.0954 32.8704 27.3468 31.5159 27.566V27.639C33.3597 27.8401 34.6013 29.11 34.6013 30.8641V30.8641ZM29.4369 23.0803H26.6337V27.0178H28.9947C30.8199 27.0178 31.8262 26.2869 31.8262 24.9805C31.8261 23.7563 30.9608 23.0803 29.4369 23.0803ZM26.6337 28.5801V32.9193H29.5401C31.4404 32.9193 32.4469 32.161 32.4469 30.736C32.4469 29.3109 31.4121 28.5798 29.4178 28.5798H26.6337V28.5801Z" fill="#7952B3"/>
</svg>
